<?xml version="1.0" encoding="utf-8"?>
<!-- Generator: Adobe Illustrator 21.0.2, SVG Export Plug-In . SVG Version: 6.00 Build 0)  -->
<!DOCTYPE svg PUBLIC "-//W3C//DTD SVG 1.1//EN" "http://www.w3.org/Graphics/SVG/1.1/DTD/svg11.dtd">
<svg version="1.1" id="Layer_1" xmlns="http://www.w3.org/2000/svg" xmlns:xlink="http://www.w3.org/1999/xlink" x="0px" y="0px"
	 viewBox="0 0 280 280" style="enable-background:new 0 0 280 280;" xml:space="preserve">
<style type="text/css">
	.st0{fill:#F37166;}
</style>
<g>
	<path class="st0" d="M140,31c35.5,0,39.7,0.1,53.7,0.8c13,0.6,20,2.8,24.7,4.6c6.2,2.4,10.6,5.3,15.3,9.9c4.7,4.7,7.5,9.1,9.9,15.3
		c1.8,4.7,4,11.7,4.6,24.7c0.6,14,0.8,18.2,0.8,53.7s-0.1,39.7-0.8,53.7c-0.6,13-2.8,20-4.6,24.7c-2.4,6.2-5.3,10.6-9.9,15.3
		c-4.7,4.7-9.1,7.5-15.3,9.9c-4.7,1.8-11.7,4-24.7,4.6c-14,0.6-18.2,0.8-53.7,0.8s-39.7-0.1-53.7-0.8c-13-0.6-20-2.8-24.7-4.6
		c-6.2-2.4-10.6-5.3-15.3-9.9c-4.7-4.7-7.5-9.1-9.9-15.3c-1.8-4.7-4-11.7-4.6-24.7c-0.6-14-0.8-18.2-0.8-53.7s0.1-39.7,0.8-53.7
		c0.6-13,2.8-20,4.6-24.7c2.4-6.2,5.3-10.6,9.9-15.3c4.7-4.7,9.1-7.5,15.3-9.9c4.7-1.8,11.7-4,24.7-4.6C100.3,31.1,104.5,31,140,31
		 M140,7c-36.1,0-40.6,0.2-54.8,0.8C71,8.4,61.3,10.7,52.9,14c-8.7,3.4-16.2,7.9-23.6,15.3S17.4,44.1,14,52.9
		C10.7,61.3,8.4,71,7.8,85.2C7.2,99.4,7,103.9,7,140s0.2,40.6,0.8,54.8s2.9,23.8,6.2,32.3c3.4,8.7,7.9,16.2,15.3,23.6
		c7.4,7.4,14.8,11.9,23.6,15.3c8.5,3.3,18.1,5.5,32.3,6.2c14.2,0.6,18.7,0.8,54.8,0.8s40.6-0.2,54.8-0.8c14.2-0.6,23.8-2.9,32.3-6.2
		c8.7-3.4,16.2-7.9,23.6-15.3c7.4-7.4,11.9-14.8,15.3-23.6c3.3-8.5,5.5-18.1,6.2-32.3c0.6-14.2,0.8-18.7,0.8-54.8
		s-0.2-40.6-0.8-54.8c-0.6-14.2-2.9-23.8-6.2-32.3c-3.4-8.7-7.9-16.2-15.3-23.6c-7.4-7.4-14.8-11.9-23.6-15.3
		c-8.5-3.3-18.1-5.5-32.3-6.2C180.6,7.2,176.1,7,140,7L140,7z"/>
	<path class="st0" d="M140,71.7c-37.7,0-68.3,30.6-68.3,68.3s30.6,68.3,68.3,68.3s68.3-30.6,68.3-68.3S177.7,71.7,140,71.7z
		 M140,184.3c-24.5,0-44.3-19.8-44.3-44.3s19.8-44.3,44.3-44.3s44.3,19.8,44.3,44.3S164.5,184.3,140,184.3z"/>
	<circle class="st0" cx="211" cy="69" r="16"/>
</g>
</svg>
