<?xml version="1.0" encoding="utf-8"?>
<!-- Generator: Adobe Illustrator 18.1.0, SVG Export Plug-In . SVG Version: 6.00 Build 0)  -->
<!DOCTYPE svg PUBLIC "-//W3C//DTD SVG 1.1//EN" "http://www.w3.org/Graphics/SVG/1.1/DTD/svg11.dtd">
<svg version="1.1" id="Layer_1" xmlns="http://www.w3.org/2000/svg" xmlns:xlink="http://www.w3.org/1999/xlink" x="0px" y="0px"
	 viewBox="0 0 280 280" enable-background="new 0 0 280 280" xml:space="preserve">
<path id="White_2_" fill="#F37166" d="M258.7,6.6H21.3c-8.1,0-14.7,6.6-14.7,14.7v237.4c0,8.1,6.6,14.7,14.7,14.7h127.8V170.1h-34.8
	v-40.3h34.8v-29.7c0-34.5,21.1-53.2,51.8-53.2c14.7,0,27.4,1.1,31.1,1.6v36h-21.3c-16.7,0-20,7.9-20,19.6v25.7h39.9l-5.2,40.3h-34.7
	v103.4h68c8.1,0,14.7-6.6,14.7-14.7V21.3C273.4,13.1,266.9,6.6,258.7,6.6z"/>
</svg>
