<?xml version="1.0" encoding="utf-8"?>
<!-- Generator: Adobe Illustrator 18.1.0, SVG Export Plug-In . SVG Version: 6.00 Build 0)  -->
<!DOCTYPE svg PUBLIC "-//W3C//DTD SVG 1.1//EN" "http://www.w3.org/Graphics/SVG/1.1/DTD/svg11.dtd">
<svg version="1.1" id="Layer_1" xmlns="http://www.w3.org/2000/svg" xmlns:xlink="http://www.w3.org/1999/xlink" x="0px" y="0px"
	 viewBox="0 0 280 280" enable-background="new 0 0 280 280" xml:space="preserve">
<g id="search">
	<path fill="#F37166" d="M171.8,204.5c-25.2,0-48.8-9.8-66.6-27.6c-17.8-17.8-27.6-41.5-27.6-66.6s9.8-48.8,27.6-66.6
		S146.6,16,171.8,16s48.8,9.8,66.6,27.6c36.7,36.7,36.7,96.5,0,133.3C220.6,194.7,197,204.5,171.8,204.5z M171.8,57.6
		c-14,0-27.3,5.5-37.2,15.4s-15.4,23.1-15.4,37.2c0,14,5.5,27.2,15.4,37.2c9.9,9.9,23.1,15.4,37.2,15.4c14,0,27.3-5.5,37.2-15.4
		c20.5-20.5,20.5-53.9,0-74.4C199,63.1,185.8,57.6,171.8,57.6z"/>
	<path fill="#F37166" d="M36.8,266c-5.3,0-10.7-2-14.7-6.1c-8.1-8.1-8.1-21.3,0-29.5l83.1-83.1c8.1-8.1,21.3-8.1,29.5,0
		c8.1,8.1,8.1,21.3,0,29.5l-83.1,83.1C47.5,264,42.2,266,36.8,266z"/>
</g>
</svg>
